<mxfile host="app.diagrams.net" modified="2023-10-31T07:43:13.250Z" agent="Mozilla/5.0 (Windows NT 10.0; Win64; x64) AppleWebKit/537.36 (KHTML, like Gecko) Chrome/118.0.0.0 Safari/537.36 Edg/118.0.2088.76" version="22.0.8" etag="ML94FzpgcgHHlFA8O46Z" type="github">
  <diagram name="第 1 页" id="_cUln-NZzH_rBMVSEmHp">
    <mxGraphModel>
      <root>
        <mxCell id="0" />
        <mxCell id="1" parent="0" />
      </root>
    </mxGraphModel>
  </diagram>
</mxfile>
